<?xml version="1.0" encoding="UTF-8"?>
<svg width="24px" height="24px" viewBox="0 0 24 24" version="1.1" xmlns="http://www.w3.org/2000/svg" xmlns:xlink="http://www.w3.org/1999/xlink">
    <title>icons/alert-inactive</title>
    <g id="icons/alert-inactive" stroke="none" stroke-width="1" fill="none" fill-rule="evenodd">
        <path d="M5.53526193,18.8097201 L6.28379741,17.2638316 L18.1288831,17.2638316 L18.8767677,18.8097201 L5.53526193,18.8097201 Z M12.2069912,22.0472988 C11.3107013,22.0472988 10.541337,21.5194185 10.1761819,20.7617704 L14.2371495,20.7617704 C13.8726453,21.5200694 13.103281,22.0472988 12.2069912,22.0472988 L12.2069912,22.0472988 Z M6.64960344,11.6250814 C6.64960344,8.56064222 9.14255202,6.06769364 12.2056894,6.06769364 C15.2701285,6.06769364 17.763728,8.56064222 17.763728,11.6250814 L17.763728,15.3111304 L6.64960344,15.3111304 L6.64960344,11.6250814 Z M12.2069912,1.95205034 C12.802565,1.95205034 13.2881367,2.43697114 13.2881367,3.03254502 C13.2881367,3.6294207 12.802565,4.11434151 12.2069912,4.11434151 C11.6107664,4.11434151 11.1258456,3.6287698 11.1258456,3.03254502 C11.1258456,2.43697114 11.6107664,1.95205034 12.2069912,1.95205034 L12.2069912,1.95205034 Z M19.7164292,16.0635713 L19.7164292,11.6250814 C19.7164292,8.39661532 17.665442,5.64525928 14.7988766,4.5862443 C15.0735566,4.13061402 15.240838,3.60273378 15.240838,3.03319592 C15.240838,1.36038186 13.8791543,0 12.2069912,0 C10.5341771,0 9.17314434,1.36038186 9.17314434,3.03319592 C9.17314434,3.60273378 9.34042574,4.12996312 9.61445482,4.5855934 C6.7485403,5.64460837 4.6969022,8.39596442 4.6969022,11.6250814 L4.6969022,16.0635713 L3.09829079,19.359731 C2.9505364,19.6623997 2.97071431,20.0190931 3.14971192,20.3035366 C3.32740773,20.5886309 3.64049083,20.7617704 3.97635544,20.7617704 L8.11217666,20.7617704 C8.55413804,22.6155348 10.2197922,24 12.2076421,24 C14.194841,24 15.8604952,22.6155348 16.3031075,20.7617704 L20.4376269,20.7617704 C20.4421832,20.7617704 20.4467395,20.7624213 20.449994,20.7617704 C20.9895904,20.7617704 21.4263446,20.3243654 21.4263446,19.7854198 C21.4263446,19.5784335 21.3619055,19.3864179 21.2519033,19.2289 L19.7164292,16.0635713 Z" id="Fill-1" fill="#A0A9BA"></path>
    </g>
</svg>