<svg xmlns="http://www.w3.org/2000/svg" xmlns:xlink="http://www.w3.org/1999/xlink" width="16" height="16" viewBox="0 0 16 16">
    <defs>
        <path id="2009jj5w2a" d="M0 0.001L9.751 0.001 9.751 13.5 0 13.5z"/>
    </defs>
    <g fill="none" fill-rule="evenodd">
        <g>
            <g>
                <g transform="translate(-840 -213) translate(840 213) translate(3 1)">
                    <mask id="offmprxhhb" fill="#fff">
                        <use xlink:href="#2009jj5w2a"/>
                    </mask>
                    <path fill="#A0A9BA" d="M9.481 7.98v-.002c-.349-.345-.957-.343-1.303 0l-2.377 2.377V.92c0-.508-.413-.92-.92-.92-.509 0-.922.412-.922.92v9.434L1.573 7.967c-.348-.343-.956-.341-1.302 0-.175.175-.27.406-.27.653s.095.479.27.652l3.958 3.959c.09.088.192.155.316.204.11.043.223.065.335.065.115 0 .224-.022.35-.07.112-.045.214-.112.304-.201L9.48 9.282c.175-.173.272-.405.272-.651s-.096-.477-.27-.652" mask="url(#offmprxhhb)"/>
                </g>
            </g>
        </g>
    </g>
</svg>
