<svg xmlns="http://www.w3.org/2000/svg" width="16" height="16" viewBox="0 0 16 16">
    <g fill="none" fill-rule="evenodd">
        <g>
            <g>
                <g>
                    <path d="M0 0H16V16H0z" transform="translate(-296 -404) translate(144 335) translate(152 69)"/>
                    <path fill="#cbd0d8" d="M4 4.667V12.5c0 .828.672 1.5 1.5 1.5h5c.828 0 1.5-.672 1.5-1.5V4.667H4zM9.333 2.333c0-.552-.447-1-1-1h-.666c-.553 0-1 .448-1 1H3.833c-.276 0-.5.224-.5.5s.224.5.5.5h8.334c.276 0 .5-.224.5-.5s-.224-.5-.5-.5H9.333z" transform="translate(-296 -404) translate(144 335) translate(152 69)"/>
                </g>
            </g>
        </g>
    </g>
</svg>
