<svg xmlns="http://www.w3.org/2000/svg" width="32" height="32" viewBox="0 0 32 32">
    <g fill="none" fill-rule="evenodd">
        <g fill="#A0A9BA">
            <g>
                <path d="M17.29 22.013c2.19 0 3.97 1.791 3.97 3.993S19.48 30 17.29 30c-1.746 0-3.233-1.141-3.762-2.722H3.237c-.683 0-1.237-.57-1.237-1.272 0-.703.554-1.271 1.237-1.271l10.291-.001c.53-1.58 2.016-2.721 3.762-2.721zm0 2.542c-.825 0-1.496.651-1.496 1.451s.671 1.452 1.496 1.452c.826 0 1.497-.652 1.497-1.452 0-.8-.67-1.45-1.497-1.45zm11.473.18c.682 0 1.236.568 1.236 1.27 0 .703-.554 1.272-1.236 1.272h-4.667c-.683 0-1.237-.569-1.237-1.271 0-.703.554-1.271 1.237-1.271h4.667zM10.359 12.006c2.19 0 3.97 1.792 3.97 3.994s-1.78 3.994-3.97 3.994c-1.748 0-3.235-1.142-3.764-2.723H3.237C2.554 17.27 2 16.702 2 15.999c0-.702.554-1.27 1.237-1.27l3.358-.001c.53-1.58 2.017-2.722 3.764-2.722zm0 2.543c-.826 0-1.498.65-1.498 1.45 0 .8.672 1.452 1.498 1.452S11.856 16.8 11.856 16s-.671-1.451-1.497-1.451zm18.404.18c.682 0 1.236.568 1.236 1.27 0 .703-.554 1.272-1.236 1.272H17.1c-.683 0-1.237-.569-1.237-1.272 0-.702.554-1.27 1.237-1.27h11.662zM20.667 2c2.19 0 3.97 1.792 3.97 3.994s-1.78 3.993-3.97 3.993c-1.746 0-3.233-1.14-3.762-2.72L3.299 7.264C2.582 7.265 2 6.696 2 5.994c0-.703.582-1.271 1.3-1.271l13.605-.001C17.434 3.142 18.92 2 20.667 2zm0 2.542c-.825 0-1.496.652-1.496 1.452 0 .8.671 1.45 1.496 1.45.826 0 1.497-.65 1.497-1.45 0-.8-.67-1.452-1.497-1.452zm8.097.18c.682 0 1.236.57 1.236 1.272 0 .702-.554 1.271-1.236 1.271h-1.646c-.683 0-1.237-.569-1.237-1.271 0-.703.554-1.271 1.237-1.271h1.646z" transform="translate(-1320 -152) translate(1320 152)"/>
            </g>
        </g>
    </g>
</svg>
