<svg xmlns="http://www.w3.org/2000/svg" width="32" height="32" viewBox="0 0 32 32">
    <g fill="none" fill-rule="evenodd">
        <g>
            <g>
                <g transform="translate(-1344 -482) translate(1344 482) translate(3 3)">
                    <circle cx="13" cy="13" r="13" fill="#FFF"/>
                    <path fill="#A0A9BA" d="M13 16.9c1.072 0 1.95.878 1.95 1.95S14.073 20.8 13 20.8c-1.072 0-1.95-.878-1.95-1.95 0-1.073.877-1.95 1.95-1.95zm0-5.85c1.072 0 1.95.877 1.95 1.95 0 1.072-.877 1.95-1.95 1.95-1.072 0-1.95-.877-1.95-1.95 0-1.072.877-1.95 1.95-1.95zm0-5.85c1.072 0 1.95.877 1.95 1.95 0 1.072-.877 1.95-1.95 1.95-1.072 0-1.95-.877-1.95-1.95S11.927 5.2 13 5.2z"/>
                </g>
            </g>
        </g>
    </g>
</svg>
