<svg xmlns="http://www.w3.org/2000/svg" width="13" height="13" viewBox="0 0 13 13">
    <g fill="none" fill-rule="evenodd">
        <g fill="#FFF">
            <g>
                <g>
                    <g>
                        <path d="M11.21 6.626H7.413V2.83c0-.295-.114-.572-.322-.78-.21-.209-.486-.323-.778-.323-.294 0-.571.114-.78.323-.21.208-.324.487-.322.779L5.21 6.626H1.413c-.294 0-.571.114-.78.323-.207.208-.322.485-.321.78 0 .294.115.57.322.777.208.207.483.322.778.323H5.21v3.799c0 .294.116.57.323.777.208.207.483.322.78.323.605 0 1.099-.494 1.1-1.101V8.829h3.796c.294 0 .572-.115.78-.323.209-.209.324-.485.323-.778 0-.294-.114-.572-.322-.78-.208-.208-.486-.322-.78-.322z" transform="translate(-760 -665) translate(736 539) translate(16 120) translate(8 5)"/>
                    </g>
                </g>
            </g>
        </g>
    </g>
</svg>
