<?xml version="1.0" encoding="UTF-8"?>
<svg width="24px" height="24px" viewBox="0 0 24 24" version="1.1" xmlns="http://www.w3.org/2000/svg" xmlns:xlink="http://www.w3.org/1999/xlink">
    <title>icons/search</title>
    <g id="icons/search" stroke="none" stroke-width="1" fill="none" fill-rule="evenodd">
        <path d="M9.49200713,1 C14.173937,1 17.9831994,4.81904024 17.9831994,9.51482197 C17.9831994,11.4065448 17.3649836,13.156111 16.3205483,14.5710449 L22.6432108,20.9149056 C23.1198778,21.3932023 23.119063,22.167277 22.6407663,22.6439441 C22.4028402,22.8810554 22.089951,23.0000185 21.7778767,23.0000185 C21.4641727,23.0000185 21.1504688,22.8802406 20.9125426,22.6406848 L14.6038142,16.3104101 C13.1807699,17.3896892 11.4095822,18.0304587 9.49200713,18.0304587 C4.80926246,18.0304587 1,14.2106037 1,9.51482197 C1,4.81904024 4.80926246,1 9.49200713,1 Z M9.49200713,3.4444465 C6.15696729,3.4444465 3.4444465,6.1675599 3.4444465,9.51482197 C3.4444465,12.8628989 6.15696729,15.5860122 9.49200713,15.5860122 C12.8262322,15.5860122 15.538753,12.8628989 15.538753,9.51482197 C15.538753,6.1675599 12.8262322,3.4444465 9.49200713,3.4444465 Z" id="Combined-Shape" fill="#A0A9BA"></path>
    </g>
</svg>