<svg xmlns="http://www.w3.org/2000/svg" width="30" height="30" viewBox="0 0 30 30">
    <g fill="none" fill-rule="evenodd">
        <g fill="#0073A0">
            <g>
                <g>
                    <path d="M22.8 9.6L18 14.4h3.6c0 3.972-3.228 7.2-7.2 7.2-1.212 0-2.364-.3-3.36-.84l-1.752 1.752C10.764 23.448 12.516 24 14.4 24c5.304 0 9.6-4.296 9.6-9.6h3.6l-4.8-4.8zM7.2 14.4c0-3.972 3.228-7.2 7.2-7.2 1.212 0 2.364.3 3.36.84l1.752-1.752C18.036 5.352 16.284 4.8 14.4 4.8c-5.304 0-9.6 4.296-9.6 9.6H1.2L6 19.2l4.8-4.8H7.2z" transform="translate(-1321 -161) translate(1312 152) translate(9.6 9.6)"/>
                </g>
            </g>
        </g>
    </g>
</svg>
