<?xml version="1.0" encoding="UTF-8"?>
<svg width="32px" height="32px" viewBox="0 0 32 32" version="1.1" xmlns="http://www.w3.org/2000/svg" xmlns:xlink="http://www.w3.org/1999/xlink">
    <title>icons/user</title>
    <g id="icons/user" stroke="none" stroke-width="1" fill="none" fill-rule="evenodd">
        <path d="M7.37826775,26.4967636 C8.95216989,25.884869 10.7027345,25.3709418 11.7771636,25.0553583 C12.4581172,24.8546055 12.7022326,24.7823345 12.8748801,24.7068514 C13.3534748,24.4996745 13.6963606,24.1158351 13.8425087,23.6227862 C14.1396228,22.6222341 13.5405764,21.5180936 12.8291084,20.4436645 L12.7472013,20.3200008 C12.2910908,19.625396 12.2083807,19.5001262 12.0710657,18.8047184 C11.9586442,18.2843671 11.5796228,17.4620836 11.091392,16.9353082 C10.8962602,16.6012555 10.6706141,15.6312178 10.735658,15.2987711 C10.8858211,14.9992479 11.2303129,14.3030371 11.1700871,13.5674788 C11.0986191,12.513125 11.1973895,11.5583445 11.4639892,10.7216068 C11.7667245,9.75959925 12.7215049,8.83854529 13.8400996,8.42981255 C14.6206266,8.14474354 15.3296856,8.1206532 16.0050181,8.1206532 C16.6658964,8.1206532 17.3765614,8.14394053 18.1578913,8.42820652 C19.2788951,8.84095433 20.2320695,9.76120527 20.5315927,10.7240158 C20.7949804,11.5567385 20.8953568,12.5372153 20.8214798,13.5666758 C20.7724961,14.2733257 21.0720193,14.9133257 21.2583179,15.2923471 C21.3257709,15.6360359 21.0993217,16.6004524 20.903387,16.9304901 C20.4031109,17.4717197 20.0273016,18.3028364 19.9229102,18.8263997 C19.7904133,19.5009292 19.7077031,19.624593 19.2523957,20.3191977 L19.1447922,20.4838151 C18.4558085,21.5237147 17.8591711,22.6262492 18.1570883,23.6235892 C18.3040394,24.1158351 18.6485312,24.5004775 19.128732,24.7076545 C19.2989704,24.7815315 19.5438888,24.8538025 20.2240394,25.0545553 C21.2976655,25.3701388 23.0482301,25.884066 24.6221322,26.4959606 C22.2741272,28.4280058 19.270865,29.5907661 16.0002,29.5907661 C12.729535,29.5907661 9.72627277,28.4296118 7.37826775,26.4967636 M16.0002,2.40883388 C23.4939014,2.40883388 29.5911661,8.50609862 29.5911661,15.9998 C29.5911661,19.2857222 28.4187696,22.3018326 26.4714673,24.6530497 C24.5659215,23.818721 22.2371887,23.1345553 20.9025839,22.7442918 C20.8118437,22.7177925 20.7251184,22.6928991 20.6464233,22.6688088 C20.7484058,22.4648439 20.9154321,22.1765629 21.1868499,21.7654211 L21.2671511,21.6433634 C21.7810783,20.8604274 22.0645413,20.4292103 22.2877784,19.2953583 C22.3198989,19.1387711 22.5214547,18.7244173 22.6732238,18.5662241 C23.3124208,17.9133759 23.966072,15.78379 23.539673,14.508608 C23.5228098,14.4580183 23.4834622,14.3576419 23.4184183,14.224342 C23.2947546,13.9729995 23.2297107,13.8043671 23.2256956,13.7369142 C23.32286,12.3918703 23.1887571,11.1343546 22.8314171,10.0045177 C22.3078537,8.31658795 20.835934,6.84707729 18.987402,6.16853275 C17.8896856,5.76863312 16.9059967,5.71402836 15.9921699,5.71402836 C15.0936003,5.71402836 14.1099114,5.76863312 13.014604,6.16853275 C11.1732991,6.84306223 9.69897039,8.31096688 9.16978595,9.99648758 C8.81164291,11.1182944 8.67673701,12.375007 8.76908331,13.7337021 C8.76667428,13.7907159 8.73214479,13.9240158 8.57957265,14.2299631 C8.52095282,14.3488088 8.48321129,14.4403521 8.46393902,14.4965629 C8.03673701,15.7797749 8.68235809,17.9069518 9.31673701,18.5638151 C9.47573325,18.7268263 9.68371317,19.1516193 9.7142276,19.2945553 C9.93826775,20.4300133 10.2217307,20.8612304 10.734855,21.6441664 L10.8416555,21.8071777 C11.0986191,22.1942291 11.2576153,22.472071 11.3563857,22.6696118 C11.2768876,22.6928991 11.1909654,22.7185955 11.1002251,22.7450949 C9.76562033,23.1353583 7.43608457,23.819524 5.53053877,24.6538527 C3.58323639,22.3026356 2.41083958,19.2865252 2.41083958,16.000603 C2.40923388,8.50529561 8.50649862,2.40883388 16.0002,2.40883388 M27.6936504,26.8846181 C30.3564359,24.0267009 32.0002,20.2067762 32.0002,15.9998 C32.0002,7.17791794 24.8228851,-0.0002 16.0002,-0.0002 C7.17751493,-0.0002 0.0002,7.17711493 0.0002,15.9998 C0.0002,20.1826858 1.62629787,23.9849443 4.26418996,26.8380434 C4.3163857,26.9087084 4.3733995,26.9729493 4.4376404,27.0291601 C7.3533744,30.0846181 11.4535501,32.000603 16.0002,32.000603 C20.5685312,32.000603 24.6855701,30.0653458 27.6037132,26.9833885 C27.6358336,26.952071 27.664742,26.9191476 27.6936504,26.8846181" id="Fill-1" fill="#263790"></path>
    </g>
</svg>